<?xml version="1.0" encoding="UTF-8"?>
<svg xmlns="http://www.w3.org/2000/svg" xmlns:xlink="http://www.w3.org/1999/xlink" width="28pt" height="28pt" viewBox="0 0 28 28" version="1.1">
<g id="surface1">
<path style=" stroke:none;fill-rule:nonzero;fill:rgb(0%,0%,0%);fill-opacity:1;" d="M 0.4375 14 C 0.4375 21.492188 6.507812 27.5625 14 27.5625 C 21.492188 27.5625 27.5625 21.492188 27.5625 14 C 27.5625 6.507812 21.492188 0.4375 14 0.4375 C 6.507812 0.4375 0.4375 6.507812 0.4375 14 Z M 24.9375 14 C 24.9375 20.042969 20.042969 24.9375 14 24.9375 C 7.957031 24.9375 3.0625 20.042969 3.0625 14 C 3.0625 7.957031 7.957031 3.0625 14 3.0625 C 20.042969 3.0625 24.9375 7.957031 24.9375 14 Z M 21 12.90625 L 21 15.09375 C 21 15.453125 20.703125 15.75 20.34375 15.75 L 14 15.75 L 14 19.414062 C 14 20 13.292969 20.289062 12.878906 19.878906 L 7.464844 14.464844 C 7.207031 14.207031 7.207031 13.792969 7.464844 13.535156 L 12.878906 8.121094 C 13.292969 7.707031 14 8 14 8.585938 L 14 12.25 L 20.34375 12.25 C 20.703125 12.25 21 12.546875 21 12.90625 Z M 21 12.90625 "/>
</g>
</svg>
