<?xml version="1.0" encoding="UTF-8"?>
<svg xmlns="http://www.w3.org/2000/svg" xmlns:xlink="http://www.w3.org/1999/xlink" width="28pt" height="28pt" viewBox="0 0 28 28" version="1.1">
<g id="surface1">
<path style=" stroke:none;fill-rule:nonzero;fill:rgb(0%,0%,0%);fill-opacity:1;" d="M 27.5625 14 C 27.5625 6.507812 21.492188 0.4375 14 0.4375 C 6.507812 0.4375 0.4375 6.507812 0.4375 14 C 0.4375 21.492188 6.507812 27.5625 14 27.5625 C 21.492188 27.5625 27.5625 21.492188 27.5625 14 Z M 3.0625 14 C 3.0625 7.957031 7.957031 3.0625 14 3.0625 C 20.042969 3.0625 24.9375 7.957031 24.9375 14 C 24.9375 20.042969 20.042969 24.9375 14 24.9375 C 7.957031 24.9375 3.0625 20.042969 3.0625 14 Z M 7 15.09375 L 7 12.90625 C 7 12.546875 7.296875 12.25 7.65625 12.25 L 14 12.25 L 14 8.585938 C 14 8 14.707031 7.710938 15.121094 8.121094 L 20.535156 13.535156 C 20.792969 13.792969 20.792969 14.207031 20.535156 14.464844 L 15.121094 19.878906 C 14.707031 20.292969 14 20 14 19.414062 L 14 15.75 L 7.65625 15.75 C 7.296875 15.75 7 15.453125 7 15.09375 Z M 7 15.09375 "/>
</g>
</svg>
