<?xml version="1.0" encoding="UTF-8"?>
<svg xmlns="http://www.w3.org/2000/svg" xmlns:xlink="http://www.w3.org/1999/xlink" width="25pt" height="25pt" viewBox="0 0 25 25" version="1.1">
<g id="surface1">
<path style=" stroke:none;fill-rule:nonzero;fill:rgb(52.941176%,34.117647%,95.294118%);fill-opacity:1;" d="M 24.1875 12.5 C 24.1875 19.179688 18.851562 23.316406 12.171875 23.316406 C 5.492188 23.316406 0 19.179688 0 12.5 C 0 5.820312 5.414062 0.40625 12.09375 0.40625 C 18.773438 0.40625 24.1875 5.820312 24.1875 12.5 Z M 24.1875 12.5 "/>
<path style=" stroke:none;fill-rule:nonzero;fill:rgb(41.568627%,16.862745%,76.078431%);fill-opacity:1;" d="M 23.1875 17.328125 C 23.832031 15.847656 24.1875 14.214844 24.1875 12.5 C 24.1875 9.769531 23.285156 7.25 21.757812 5.222656 L 9.019531 5.222656 C 8.34375 5.222656 7.796875 5.773438 7.796875 6.445312 L 7.796875 10.671875 C 7.796875 11.234375 7.457031 11.738281 6.941406 11.953125 C 6.414062 12.175781 5.925781 12.472656 5.492188 12.832031 C 4.605469 13.566406 3.257812 13.195312 2.898438 12.101562 C 2.886719 12.066406 2.875 12.03125 2.863281 11.992188 C 2.359375 10.398438 0.0117188 10.742188 0 12.414062 C 0 12.441406 0 12.472656 0 12.5 C 0 19.179688 5.414062 24.59375 12.09375 24.59375 C 17.042969 24.59375 21.316406 21.617188 23.1875 17.328125 Z M 16.183594 17.328125 L 20.011719 17.328125 C 20.832031 17.328125 21.121094 18.414062 20.410156 18.824219 C 19.183594 19.527344 17.835938 20.015625 16.417969 20.253906 C 15.398438 20.425781 14.53125 19.511719 14.753906 18.5 C 14.757812 18.492188 14.757812 18.480469 14.761719 18.46875 C 14.902344 17.800781 15.5 17.328125 16.183594 17.328125 Z M 16.183594 17.328125 "/>
<path style=" stroke:none;fill-rule:nonzero;fill:rgb(0%,71.764706%,94.117647%);fill-opacity:1;" d="M 25 6.890625 L 25 5.226562 C 25 4.550781 24.476562 4.003906 23.804688 4.003906 L 9.964844 4.003906 L 9.964844 6.890625 Z M 25 6.890625 "/>
<path style=" stroke:none;fill-rule:nonzero;fill:rgb(0%,71.764706%,94.117647%);fill-opacity:1;" d="M 9.964844 9.433594 L 9.964844 16.109375 L 23.804688 16.109375 C 24.476562 16.109375 25 15.5625 25 14.886719 L 25 9.433594 Z M 9.964844 9.433594 "/>
<path style=" stroke:none;fill-rule:nonzero;fill:rgb(0%,56.862745%,78.431373%);fill-opacity:1;" d="M 10.539062 6.890625 C 10.34375 6.628906 10.226562 6.304688 10.226562 5.953125 C 10.226562 4.875 11.097656 4.003906 12.171875 4.003906 L 7.902344 4.003906 C 7.230469 4.003906 6.683594 4.550781 6.683594 5.226562 L 6.683594 6.890625 Z M 10.539062 6.890625 "/>
<path style=" stroke:none;fill-rule:nonzero;fill:rgb(0%,56.862745%,78.431373%);fill-opacity:1;" d="M 6.683594 9.433594 L 6.683594 14.886719 C 6.683594 15.5625 7.230469 16.109375 7.902344 16.109375 L 12.171875 16.109375 C 11.097656 16.109375 10.226562 15.238281 10.226562 14.160156 C 10.226562 12.144531 11.859375 10.511719 13.875 10.511719 L 25 10.511719 L 25 9.433594 Z M 6.683594 9.433594 "/>
<path style=" stroke:none;fill-rule:nonzero;fill:rgb(41.568627%,16.862745%,76.078431%);fill-opacity:1;" d="M 6.683594 6.695312 L 15.609375 6.695312 L 15.609375 9.703125 L 6.683594 9.703125 Z M 6.683594 6.695312 "/>
<path style=" stroke:none;fill-rule:nonzero;fill:rgb(52.941176%,34.117647%,95.294118%);fill-opacity:1;" d="M 13.65625 8.199219 C 13.65625 9.027344 14.328125 9.703125 15.160156 9.703125 L 25 9.703125 L 25 6.695312 L 15.160156 6.695312 C 14.328125 6.695312 13.65625 7.371094 13.65625 8.199219 Z M 13.65625 8.199219 "/>
<path style=" stroke:none;fill-rule:nonzero;fill:rgb(100%,100%,100%);fill-opacity:1;" d="M 23.042969 13.65625 C 23.042969 14.480469 22.371094 15.148438 21.546875 15.148438 C 20.722656 15.148438 20.054688 14.480469 20.054688 13.65625 C 20.054688 12.832031 20.722656 12.164062 21.546875 12.164062 C 22.371094 12.164062 23.042969 12.832031 23.042969 13.65625 Z M 23.042969 13.65625 "/>
<path style=" stroke:none;fill-rule:nonzero;fill:rgb(0%,56.862745%,78.431373%);fill-opacity:1;" d="M 13.53125 11.898438 L 10.210938 11.898438 C 10.074219 11.898438 9.964844 11.789062 9.964844 11.652344 L 9.964844 11.105469 C 9.964844 10.972656 10.074219 10.863281 10.210938 10.863281 L 13.53125 10.863281 C 13.664062 10.863281 13.777344 10.972656 13.777344 11.105469 L 13.777344 11.652344 C 13.777344 11.789062 13.664062 11.898438 13.53125 11.898438 Z M 13.53125 11.898438 "/>
<path style=" stroke:none;fill-rule:nonzero;fill:rgb(0%,56.862745%,78.431373%);fill-opacity:1;" d="M 16.664062 11.898438 L 14.964844 11.898438 C 14.828125 11.898438 14.71875 11.789062 14.71875 11.652344 L 14.71875 11.105469 C 14.71875 10.972656 14.828125 10.863281 14.964844 10.863281 L 16.664062 10.863281 C 16.800781 10.863281 16.910156 10.972656 16.910156 11.105469 L 16.910156 11.652344 C 16.910156 11.789062 16.800781 11.898438 16.664062 11.898438 Z M 16.664062 11.898438 "/>
<path style=" stroke:none;fill-rule:nonzero;fill:rgb(0%,56.862745%,78.431373%);fill-opacity:1;" d="M 19.859375 11.898438 L 18.160156 11.898438 C 18.023438 11.898438 17.914062 11.789062 17.914062 11.652344 L 17.914062 11.105469 C 17.914062 10.972656 18.023438 10.863281 18.160156 10.863281 L 19.859375 10.863281 C 19.996094 10.863281 20.105469 10.972656 20.105469 11.105469 L 20.105469 11.652344 C 20.105469 11.789062 19.996094 11.898438 19.859375 11.898438 Z M 19.859375 11.898438 "/>
<path style=" stroke:none;fill-rule:nonzero;fill:rgb(0%,56.862745%,78.431373%);fill-opacity:1;" d="M 23.050781 11.898438 L 21.351562 11.898438 C 21.214844 11.898438 21.105469 11.789062 21.105469 11.652344 L 21.105469 11.105469 C 21.105469 10.972656 21.214844 10.863281 21.351562 10.863281 L 23.050781 10.863281 C 23.1875 10.863281 23.296875 10.972656 23.296875 11.105469 L 23.296875 11.652344 C 23.296875 11.789062 23.1875 11.898438 23.050781 11.898438 Z M 23.050781 11.898438 "/>
<path style=" stroke:none;fill-rule:nonzero;fill:rgb(71.372549%,100%,96.470588%);fill-opacity:1;" d="M 13.53125 11.542969 L 10.210938 11.542969 C 10.074219 11.542969 9.964844 11.433594 9.964844 11.296875 L 9.964844 10.753906 C 9.964844 10.617188 10.074219 10.507812 10.210938 10.507812 L 13.53125 10.507812 C 13.664062 10.507812 13.777344 10.617188 13.777344 10.753906 L 13.777344 11.296875 C 13.777344 11.433594 13.664062 11.542969 13.53125 11.542969 Z M 13.53125 11.542969 "/>
<path style=" stroke:none;fill-rule:nonzero;fill:rgb(71.372549%,100%,96.470588%);fill-opacity:1;" d="M 16.664062 11.542969 L 14.964844 11.542969 C 14.828125 11.542969 14.71875 11.433594 14.71875 11.296875 L 14.71875 10.753906 C 14.71875 10.617188 14.828125 10.507812 14.964844 10.507812 L 16.664062 10.507812 C 16.800781 10.507812 16.910156 10.617188 16.910156 10.753906 L 16.910156 11.296875 C 16.910156 11.433594 16.800781 11.542969 16.664062 11.542969 Z M 16.664062 11.542969 "/>
<path style=" stroke:none;fill-rule:nonzero;fill:rgb(71.372549%,100%,96.470588%);fill-opacity:1;" d="M 19.859375 11.542969 L 18.160156 11.542969 C 18.023438 11.542969 17.914062 11.433594 17.914062 11.296875 L 17.914062 10.753906 C 17.914062 10.617188 18.023438 10.507812 18.160156 10.507812 L 19.859375 10.507812 C 19.996094 10.507812 20.105469 10.617188 20.105469 10.753906 L 20.105469 11.296875 C 20.105469 11.433594 19.996094 11.542969 19.859375 11.542969 Z M 19.859375 11.542969 "/>
<path style=" stroke:none;fill-rule:nonzero;fill:rgb(71.372549%,100%,96.470588%);fill-opacity:1;" d="M 23.050781 11.542969 L 21.351562 11.542969 C 21.214844 11.542969 21.105469 11.433594 21.105469 11.296875 L 21.105469 10.753906 C 21.105469 10.617188 21.214844 10.507812 21.351562 10.507812 L 23.050781 10.507812 C 23.1875 10.507812 23.296875 10.617188 23.296875 10.753906 L 23.296875 11.296875 C 23.296875 11.433594 23.1875 11.542969 23.050781 11.542969 Z M 23.050781 11.542969 "/>
<path style=" stroke:none;fill-rule:nonzero;fill:rgb(99.607843%,77.254902%,0.784314%);fill-opacity:1;" d="M 13.53125 16.03125 C 13.53125 19.066406 11.070312 21.523438 8.039062 21.523438 C 5.003906 21.523438 2.542969 19.066406 2.542969 16.03125 C 2.542969 12.996094 5.003906 10.539062 8.039062 10.539062 C 11.070312 10.539062 13.53125 12.996094 13.53125 16.03125 Z M 13.53125 16.03125 "/>
<path style=" stroke:none;fill-rule:nonzero;fill:rgb(100%,90.196078%,35.294118%);fill-opacity:1;" d="M 2.296875 16.03125 C 2.296875 19.199219 4.867188 21.769531 8.035156 21.769531 L 8.035156 10.292969 C 4.867188 10.292969 2.296875 12.863281 2.296875 16.03125 Z M 2.296875 16.03125 "/>
<path style=" stroke:none;fill-rule:nonzero;fill:rgb(100%,64.705882%,3.921569%);fill-opacity:1;" d="M 8.039062 11.8125 C 10.363281 11.8125 12.257812 13.703125 12.257812 16.03125 C 12.257812 18.359375 10.363281 20.25 8.039062 20.25 C 5.710938 20.25 3.816406 18.359375 3.816406 16.03125 C 3.816406 13.703125 5.710938 11.8125 8.039062 11.8125 M 8.039062 10.292969 C 4.867188 10.292969 2.296875 12.863281 2.296875 16.03125 C 2.296875 19.199219 4.867188 21.769531 8.039062 21.769531 C 11.207031 21.769531 13.777344 19.199219 13.777344 16.03125 C 13.777344 12.863281 11.207031 10.292969 8.039062 10.292969 Z M 8.039062 10.292969 "/>
<path style=" stroke:none;fill-rule:nonzero;fill:rgb(100%,90.196078%,35.294118%);fill-opacity:1;" d="M 7.492188 10.65625 C 7.488281 10.519531 7.546875 10.378906 7.671875 10.304688 C 4.828125 10.484375 2.546875 12.734375 2.316406 15.5625 C 2.300781 15.785156 2.476562 15.972656 2.695312 15.972656 C 2.894531 15.972656 3.058594 15.816406 3.074219 15.621094 C 3.28125 13.136719 5.3125 11.164062 7.824219 11.058594 C 7.597656 11.035156 7.488281 10.84375 7.492188 10.65625 Z M 7.492188 10.65625 "/>
<path style=" stroke:none;fill-rule:nonzero;fill:rgb(98.039216%,52.941176%,3.921569%);fill-opacity:1;" d="M 13.382812 16.039062 C 13.179688 16.039062 13.015625 16.195312 13.003906 16.394531 C 12.816406 18.949219 10.695312 20.976562 8.105469 21.007812 C 8.46875 21.097656 8.476562 21.652344 8.136719 21.769531 C 11.121094 21.71875 13.550781 19.386719 13.761719 16.441406 C 13.777344 16.222656 13.601562 16.039062 13.382812 16.039062 Z M 13.382812 16.039062 "/>
<path style=" stroke:none;fill-rule:nonzero;fill:rgb(100%,64.705882%,3.921569%);fill-opacity:1;" d="M 7.996094 13.433594 C 7.828125 13.433594 7.707031 13.53125 7.707031 13.636719 L 7.707031 13.847656 C 6.910156 13.960938 6.199219 14.421875 6.199219 15.378906 C 6.199219 16.34375 7.015625 16.667969 7.707031 16.933594 L 7.707031 18.152344 C 7.152344 18.054688 6.894531 17.609375 6.578125 17.609375 C 6.289062 17.609375 6.066406 17.988281 6.066406 18.242188 C 6.066406 18.726562 6.804688 19.195312 7.707031 19.222656 L 7.707031 19.414062 C 7.707031 19.519531 7.828125 19.617188 7.996094 19.617188 C 8.136719 19.617188 8.28125 19.519531 8.28125 19.414062 L 8.28125 19.195312 C 9.164062 19.050781 9.765625 18.484375 9.765625 17.550781 C 9.765625 16.53125 8.96875 16.179688 8.28125 15.921875 L 8.28125 14.820312 C 8.773438 14.859375 8.914062 15.101562 9.164062 15.101562 C 9.496094 15.101562 9.632812 14.683594 9.632812 14.480469 C 9.632812 13.960938 8.75 13.839844 8.28125 13.824219 L 8.28125 13.636719 C 8.28125 13.53125 8.136719 13.433594 7.996094 13.433594 Z M 7.785156 15.742188 C 7.496094 15.621094 7.300781 15.484375 7.300781 15.265625 C 7.300781 15.085938 7.445312 14.910156 7.785156 14.84375 Z M 8.207031 18.144531 L 8.207031 17.136719 C 8.476562 17.265625 8.667969 17.421875 8.667969 17.671875 C 8.667969 17.941406 8.460938 18.085938 8.207031 18.144531 Z M 8.207031 18.144531 "/>
<path style=" stroke:none;fill-rule:nonzero;fill:rgb(100%,100%,100%);fill-opacity:1;" d="M 7.707031 18.550781 C 6.804688 18.519531 6.066406 18.050781 6.066406 17.570312 C 6.066406 17.3125 6.289062 16.9375 6.578125 16.9375 C 6.894531 16.9375 7.152344 17.382812 7.707031 17.480469 L 7.707031 16.257812 C 7.015625 15.992188 6.199219 15.667969 6.199219 14.703125 C 6.199219 13.746094 6.910156 13.285156 7.707031 13.171875 L 7.707031 12.960938 C 7.707031 12.855469 7.828125 12.757812 7.996094 12.757812 C 8.136719 12.757812 8.28125 12.855469 8.28125 12.960938 L 8.28125 13.152344 C 8.75 13.167969 9.632812 13.285156 9.632812 13.808594 C 9.632812 14.011719 9.496094 14.425781 9.164062 14.425781 C 8.914062 14.425781 8.773438 14.183594 8.28125 14.144531 L 8.28125 15.246094 C 8.96875 15.503906 9.765625 15.859375 9.765625 16.875 C 9.765625 17.8125 9.164062 18.375 8.28125 18.519531 L 8.28125 18.738281 C 8.28125 18.84375 8.136719 18.941406 7.996094 18.941406 C 7.828125 18.941406 7.707031 18.84375 7.707031 18.738281 Z M 7.785156 15.066406 L 7.785156 14.167969 C 7.445312 14.238281 7.300781 14.410156 7.300781 14.589844 C 7.300781 14.808594 7.496094 14.945312 7.785156 15.066406 Z M 8.207031 16.460938 L 8.207031 17.472656 C 8.460938 17.410156 8.667969 17.269531 8.667969 16.996094 C 8.667969 16.746094 8.476562 16.589844 8.207031 16.460938 Z M 8.207031 16.460938 "/>
</g>
</svg>
