<?xml version="1.0" encoding="UTF-8"?>
<svg xmlns="http://www.w3.org/2000/svg" xmlns:xlink="http://www.w3.org/1999/xlink" width="25pt" height="25pt" viewBox="0 0 25 25" version="1.1">
<g id="surface1">
<path style=" stroke:none;fill-rule:nonzero;fill:rgb(94.117647%,93.72549%,92.156863%);fill-opacity:1;" d="M 25 12.5 C 25 12.800781 24.988281 13.097656 24.96875 13.394531 C 24.945312 13.742188 24.90625 14.085938 24.851562 14.425781 C 24.789062 14.847656 24.703125 15.261719 24.59375 15.667969 C 23.195312 21.035156 18.308594 25 12.5 25 C 9.691406 25 7.097656 24.074219 5.011719 22.511719 C 2.457031 20.59375 0.65625 17.722656 0.148438 14.425781 C 0.0507812 13.796875 0 13.15625 0 12.5 C 0 11.726562 0.0703125 10.96875 0.203125 10.234375 C 1.269531 4.414062 6.371094 0 12.5 0 C 18.707031 0 23.855469 4.523438 24.832031 10.453125 C 24.9375 11.082031 24.992188 11.730469 25 12.390625 C 25 12.425781 25 12.464844 25 12.5 Z M 25 12.5 "/>
<path style=" stroke:none;fill-rule:nonzero;fill:rgb(36.078431%,33.333333%,37.647059%);fill-opacity:1;" d="M 25 12.390625 C 24.992188 11.730469 24.9375 11.082031 24.832031 10.453125 C 24.589844 10.308594 24.273438 10.234375 23.890625 10.234375 L 22.675781 10.234375 L 22.675781 14.425781 L 23.496094 14.425781 L 23.496094 12.742188 L 23.601562 12.742188 L 24.730469 14.425781 L 24.851562 14.425781 C 24.90625 14.085938 24.945312 13.742188 24.96875 13.394531 L 24.417969 12.660156 C 24.652344 12.613281 24.847656 12.519531 25 12.390625 Z M 23.734375 12.164062 L 23.496094 12.164062 L 23.496094 10.894531 L 23.746094 10.894531 C 24.253906 10.894531 24.53125 11.109375 24.53125 11.515625 C 24.53125 11.9375 24.253906 12.164062 23.734375 12.164062 Z M 23.734375 12.164062 "/>
<path style=" stroke:none;fill-rule:nonzero;fill:rgb(36.078431%,33.333333%,37.647059%);fill-opacity:1;" d="M 22.136719 13.714844 L 22.136719 14.425781 L 19.820312 14.425781 L 19.820312 10.234375 L 22.136719 10.234375 L 22.136719 10.945312 L 20.636719 10.945312 L 20.636719 11.875 L 22.082031 11.875 L 22.082031 12.585938 L 20.636719 12.585938 L 20.636719 13.714844 Z M 22.136719 13.714844 "/>
<path style=" stroke:none;fill-rule:nonzero;fill:rgb(36.078431%,33.333333%,37.647059%);fill-opacity:1;" d="M 19.449219 10.234375 L 17.640625 14.53125 L 17.203125 14.53125 L 15.421875 10.234375 L 16.316406 10.234375 L 17.433594 13.050781 L 18.566406 10.234375 Z M 19.449219 10.234375 "/>
<path style=" stroke:none;fill-rule:nonzero;fill:rgb(97.647059%,50.980392%,0%);fill-opacity:1;" d="M 15.679688 12.34375 C 15.679688 12.5 15.664062 12.648438 15.632812 12.792969 C 15.625 12.828125 15.617188 12.859375 15.609375 12.890625 C 15.597656 12.929688 15.589844 12.96875 15.578125 13.007812 C 15.296875 13.914062 14.449219 14.574219 13.449219 14.574219 C 12.21875 14.574219 11.222656 13.574219 11.222656 12.34375 C 11.222656 12.039062 11.28125 11.746094 11.394531 11.476562 C 11.734375 10.675781 12.527344 10.117188 13.449219 10.117188 C 14.679688 10.117188 15.679688 11.113281 15.679688 12.34375 Z M 15.679688 12.34375 "/>
<path style=" stroke:none;fill-rule:nonzero;fill:rgb(87.45098%,31.372549%,0%);fill-opacity:1;" d="M 11.628906 12.753906 C 11.628906 12.445312 11.691406 12.152344 11.804688 11.886719 C 12.140625 11.085938 12.933594 10.523438 13.859375 10.523438 C 14.371094 10.523438 14.839844 10.695312 15.214844 10.988281 C 14.808594 10.457031 14.167969 10.117188 13.449219 10.117188 C 12.527344 10.117188 11.734375 10.675781 11.394531 11.476562 C 11.28125 11.746094 11.222656 12.039062 11.222656 12.34375 C 11.222656 13.0625 11.5625 13.703125 12.09375 14.109375 C 11.800781 13.734375 11.628906 13.265625 11.628906 12.753906 Z M 11.628906 12.753906 "/>
<path style=" stroke:none;fill-rule:nonzero;fill:rgb(36.078431%,33.333333%,37.647059%);fill-opacity:1;" d="M 10.953125 10.398438 L 10.953125 11.359375 C 10.617188 11.027344 10.320312 10.886719 9.929688 10.886719 C 9.164062 10.886719 8.5625 11.523438 8.5625 12.328125 C 8.5625 13.175781 9.144531 13.773438 9.96875 13.773438 C 10.339844 13.773438 10.628906 13.640625 10.953125 13.3125 L 10.953125 14.273438 C 10.582031 14.449219 10.28125 14.519531 9.929688 14.519531 C 8.6875 14.519531 7.71875 13.5625 7.71875 12.332031 C 7.71875 11.113281 8.710938 10.140625 9.949219 10.140625 C 10.300781 10.140625 10.597656 10.21875 10.953125 10.398438 Z M 10.953125 10.398438 "/>
<path style=" stroke:none;fill-rule:nonzero;fill:rgb(36.078431%,33.333333%,37.647059%);fill-opacity:1;" d="M 7.316406 10.628906 L 6.890625 11.191406 C 6.679688 10.953125 6.476562 10.851562 6.230469 10.851562 C 5.878906 10.851562 5.621094 11.050781 5.621094 11.316406 C 5.621094 11.542969 5.765625 11.664062 6.257812 11.84375 C 7.1875 12.183594 7.460938 12.484375 7.460938 13.148438 C 7.460938 13.960938 6.867188 14.523438 6.015625 14.527344 C 5.394531 14.527344 4.945312 14.28125 4.566406 13.730469 L 5.097656 13.21875 C 5.28125 13.582031 5.597656 13.777344 5.988281 13.777344 C 6.351562 13.777344 6.621094 13.527344 6.621094 13.1875 C 6.621094 13.011719 6.539062 12.859375 6.375 12.753906 C 6.292969 12.703125 6.132812 12.628906 5.8125 12.515625 C 5.042969 12.238281 4.78125 11.945312 4.78125 11.367188 C 4.78125 10.679688 5.34375 10.167969 6.085938 10.167969 C 6.546875 10.167969 6.964844 10.324219 7.316406 10.628906 Z M 7.316406 10.628906 "/>
<path style=" stroke:none;fill-rule:nonzero;fill:rgb(36.078431%,33.333333%,37.647059%);fill-opacity:1;" d="M 3.441406 10.234375 L 4.257812 10.234375 L 4.257812 14.425781 L 3.441406 14.425781 Z M 3.441406 10.234375 "/>
<path style=" stroke:none;fill-rule:nonzero;fill:rgb(36.078431%,33.333333%,37.647059%);fill-opacity:1;" d="M 0.816406 10.234375 L 0.203125 10.234375 C 0.0703125 10.96875 0 11.726562 0 12.5 C 0 13.15625 0.0507812 13.796875 0.148438 14.425781 L 0.8125 14.425781 C 1.445312 14.425781 1.902344 14.277344 2.304688 13.941406 C 2.785156 13.542969 3.066406 12.949219 3.066406 12.332031 C 3.066406 11.097656 2.140625 10.234375 0.816406 10.234375 Z M 1.769531 13.382812 C 1.515625 13.613281 1.179688 13.714844 0.65625 13.714844 L 0.433594 13.714844 L 0.433594 10.945312 L 0.65625 10.945312 C 1.179688 10.945312 1.5 11.039062 1.769531 11.285156 C 2.054688 11.535156 2.222656 11.925781 2.222656 12.328125 C 2.222656 12.730469 2.054688 13.128906 1.769531 13.382812 Z M 1.769531 13.382812 "/>
<path style=" stroke:none;fill-rule:nonzero;fill:rgb(97.647059%,50.980392%,0%);fill-opacity:1;" d="M 24.59375 15.667969 C 23.195312 21.035156 18.308594 25 12.5 25 C 9.691406 25 7.097656 24.074219 5.011719 22.511719 C 15.175781 20.648438 21.875 17.253906 24.59375 15.667969 Z M 24.59375 15.667969 "/>
</g>
</svg>
