<?xml version="1.0" encoding="UTF-8"?>
<svg width="16pt" height="16pt" version="1.1" viewBox="0 0 16 16" xmlns="http://www.w3.org/2000/svg">
<g>
<path d="m16 8c0 4.418-3.582 8-8 8s-8-3.582-8-8 3.582-8 8-8 8 3.582 8 8z" fill="#efefef"/>
<path d="m15.934 6.957h-6.8906v-6.8906c-0.33984-0.042969-0.6875-0.066406-1.043-0.066406s-0.70312 0.023438-1.043 0.066406v6.8906h-6.8906c-0.042969 0.33984-0.066406 0.6875-0.066406 1.043s0.023438 0.70312 0.066406 1.043h6.8906v6.8906c0.33984 0.042968 0.6875 0.066406 1.043 0.066406s0.70312-0.023438 1.043-0.066406v-6.8906h6.8906c0.042968-0.33984 0.066406-0.6875 0.066406-1.043s-0.023438-0.70312-0.066406-1.043z" fill="#d70027"/>
<path d="m4.8711 3.8242v-1.043h-1.0469v1.043h-1.043v1.0469h1.043v1.043h1.0469v-1.043h1.043v-1.0469z" fill="#d70027"/>
<path d="m12.176 3.8242v-1.043h-1.0469v1.043h-1.043v1.0469h1.043v1.043h1.0469v-1.043h1.043v-1.0469z" fill="#d70027"/>
<path d="m4.8711 11.129v-1.043h-1.0469v1.043h-1.043v1.0469h1.043v1.043h1.0469v-1.043h1.043v-1.0469z" fill="#d70027"/>
<path d="m12.176 11.129v-1.043h-1.0469v1.043h-1.043v1.0469h1.043v1.043h1.0469v-1.043h1.043v-1.0469z" fill="#d70027"/>
</g>
</svg>
