<?xml version="1.0" encoding="UTF-8"?>
<svg xmlns="http://www.w3.org/2000/svg" xmlns:xlink="http://www.w3.org/1999/xlink" width="16pt" height="16pt" viewBox="0 0 16 16" version="1.1">
<g id="surface1">
<path style="stroke:none;fill-rule:nonzero;fill:rgb(0%,0%,0%);fill-opacity:1;" d="M 3.515625 1.335938 C 1.628906 1.609375 0.28125 3.046875 0.0429688 5.019531 C -0.0625 5.890625 0.0390625 6.535156 0.382812 7.371094 C 0.761719 8.25 1.371094 9.105469 2.339844 10.097656 C 3.667969 11.460938 5.316406 12.710938 7.277344 13.851562 L 7.6875 14.082031 L 8.007812 13.890625 C 10.027344 12.726562 11.683594 11.480469 13.023438 10.097656 C 13.996094 9.105469 14.609375 8.25 14.976562 7.371094 C 15.332031 6.535156 15.429688 5.890625 15.324219 5.019531 C 15.085938 3.027344 13.730469 1.605469 11.832031 1.332031 C 10.546875 1.160156 9.34375 1.523438 8.507812 2.351562 C 8.257812 2.601562 7.964844 2.992188 7.804688 3.277344 C 7.75 3.386719 7.695312 3.480469 7.6875 3.480469 C 7.675781 3.480469 7.621094 3.386719 7.558594 3.277344 C 7.40625 2.992188 7.117188 2.601562 6.855469 2.351562 C 6.019531 1.523438 4.800781 1.148438 3.515625 1.335938 Z M 4.5625 2.523438 C 5.171875 2.601562 5.695312 2.859375 6.089844 3.296875 C 6.539062 3.773438 6.878906 4.511719 7.027344 5.335938 L 7.097656 5.699219 L 8.277344 5.699219 L 8.324219 5.390625 C 8.523438 4.308594 8.988281 3.4375 9.652344 2.960938 C 10.117188 2.632812 10.761719 2.460938 11.421875 2.5 C 12.855469 2.589844 13.902344 3.585938 14.121094 5.074219 C 14.179688 5.476562 14.179688 5.773438 14.125 6.101562 C 13.835938 7.761719 11.890625 9.929688 8.914062 11.914062 C 8.609375 12.121094 8.210938 12.378906 8.019531 12.488281 L 7.6875 12.695312 L 7.347656 12.488281 C 6.835938 12.179688 5.949219 11.589844 5.445312 11.210938 C 3.007812 9.390625 1.5 7.554688 1.242188 6.101562 C 1.113281 5.335938 1.3125 4.363281 1.753906 3.722656 C 2.355469 2.824219 3.398438 2.378906 4.5625 2.523438 Z M 4.5625 2.523438 "/>
</g>
</svg>
