<?xml version="1.0" encoding="UTF-8"?>
<svg xmlns="http://www.w3.org/2000/svg" xmlns:xlink="http://www.w3.org/1999/xlink" width="17pt" height="17pt" viewBox="0 0 17 17" version="1.1">
<defs>
<clipPath id="clip1">
  <path d="M 0.667969 1.519531 L 15.9375 1.519531 L 15.9375 14.417969 L 0.667969 14.417969 Z M 0.667969 1.519531 "/>
</clipPath>
</defs>
<g id="surface1">
<g clip-path="url(#clip1)" clip-rule="nonzero">
<path style=" stroke:none;fill-rule:nonzero;fill:rgb(57.647059%,57.647059%,57.647059%);fill-opacity:1;" d="M 4.03125 1.945312 C 2.226562 2.207031 0.9375 3.585938 0.710938 5.46875 C 0.605469 6.304688 0.707031 6.917969 1.035156 7.71875 C 1.394531 8.558594 1.980469 9.375 2.90625 10.332031 C 4.175781 11.632812 5.753906 12.828125 7.632812 13.921875 L 8.023438 14.136719 L 8.324219 13.957031 C 10.257812 12.839844 11.84375 11.648438 13.128906 10.332031 C 14.058594 9.375 14.640625 8.558594 14.996094 7.71875 C 15.335938 6.917969 15.425781 6.304688 15.328125 5.46875 C 15.097656 3.566406 13.804688 2.203125 11.984375 1.941406 C 10.757812 1.78125 9.605469 2.125 8.808594 2.917969 C 8.566406 3.160156 8.285156 3.53125 8.132812 3.800781 C 8.082031 3.90625 8.027344 3.996094 8.023438 3.996094 C 8.011719 3.996094 7.957031 3.90625 7.898438 3.800781 C 7.753906 3.53125 7.476562 3.160156 7.226562 2.917969 C 6.429688 2.125 5.257812 1.769531 4.03125 1.945312 Z M 5.035156 3.082031 C 5.617188 3.160156 6.117188 3.402344 6.492188 3.824219 C 6.921875 4.277344 7.246094 4.984375 7.390625 5.773438 L 7.457031 6.117188 L 8.585938 6.117188 L 8.628906 5.828125 C 8.824219 4.789062 9.269531 3.960938 9.902344 3.503906 C 10.347656 3.1875 10.960938 3.023438 11.597656 3.058594 C 12.964844 3.144531 13.964844 4.097656 14.179688 5.523438 C 14.230469 5.910156 14.230469 6.1875 14.179688 6.503906 C 13.902344 8.09375 12.039062 10.164062 9.195312 12.066406 C 8.902344 12.265625 8.523438 12.507812 8.339844 12.613281 L 8.023438 12.8125 L 7.695312 12.613281 C 7.207031 12.320312 6.359375 11.753906 5.878906 11.394531 C 3.542969 9.648438 2.101562 7.894531 1.855469 6.503906 C 1.734375 5.773438 1.925781 4.839844 2.34375 4.230469 C 2.921875 3.371094 3.917969 2.941406 5.035156 3.082031 Z M 5.035156 3.082031 "/>
</g>
</g>
</svg>
