<?xml version="1.0" encoding="UTF-8"?>
<svg xmlns="http://www.w3.org/2000/svg" xmlns:xlink="http://www.w3.org/1999/xlink" width="25pt" height="25pt" viewBox="0 0 25 25" version="1.1">
<g id="surface1">
<path style=" stroke:none;fill-rule:nonzero;fill:rgb(29.803922%,68.627451%,31.372549%);fill-opacity:1;" d="M 24.96875 0.351562 C 24.878906 0.140625 24.671875 0 24.441406 0 C 2.386719 0 0 9.140625 0 13.074219 C 0 18.171875 3.882812 21.601562 9.664062 21.601562 C 16.964844 21.601562 18.492188 14.652344 19.3125 10.921875 C 20.109375 7.121094 22.039062 3.652344 24.84375 0.96875 C 25.007812 0.808594 25.054688 0.5625 24.96875 0.351562 Z M 24.96875 0.351562 "/>
<path style=" stroke:none;fill-rule:nonzero;fill:rgb(21.960784%,55.686275%,23.529412%);fill-opacity:1;" d="M 0.570312 25.011719 C 0.253906 25.011719 0 24.757812 0 24.441406 C 0 21.0625 5.859375 10.21875 15.101562 5.742188 C 15.382812 5.605469 15.722656 5.722656 15.859375 6.003906 C 15.996094 6.289062 15.878906 6.628906 15.59375 6.765625 C 6.265625 11.285156 1.136719 21.785156 1.136719 24.441406 C 1.136719 24.757812 0.882812 25.011719 0.570312 25.011719 Z M 0.570312 25.011719 "/>
</g>
</svg>
