<?xml version="1.0" encoding="UTF-8"?>
<svg xmlns="http://www.w3.org/2000/svg" xmlns:xlink="http://www.w3.org/1999/xlink" width="25pt" height="25pt" viewBox="0 0 25 25" version="1.1">
<g id="surface1">
<path style=" stroke:none;fill-rule:nonzero;fill:rgb(0%,20.392157%,45.098039%);fill-opacity:1;" d="M 25 12.5 C 25 19.402344 19.402344 25 12.5 25 C 5.597656 25 0 19.402344 0 12.5 C 0 5.597656 5.597656 0 12.5 0 C 19.402344 0 25 5.597656 25 12.5 Z M 25 12.5 "/>
<path style=" stroke:none;fill-rule:nonzero;fill:rgb(0%,61.568627%,86.666667%);fill-opacity:1;" d="M 12.171875 16.261719 C 13.261719 15.28125 13.945312 13.855469 13.945312 12.273438 C 13.945312 10.691406 13.257812 9.265625 12.171875 8.273438 C 11.222656 7.410156 9.957031 6.878906 8.5625 6.878906 C 5.589844 6.878906 3.171875 9.296875 3.171875 12.273438 C 3.171875 15.25 5.589844 17.65625 8.5625 17.65625 C 9.957031 17.65625 11.222656 17.128906 12.171875 16.261719 Z M 12.171875 16.261719 "/>
<path style=" stroke:none;fill-rule:nonzero;fill:rgb(0%,61.568627%,86.666667%);fill-opacity:1;" d="M 12.171875 16.261719 C 13.261719 15.28125 13.945312 13.855469 13.945312 12.273438 C 13.945312 10.691406 13.257812 9.265625 12.171875 8.273438 Z M 12.171875 16.261719 "/>
<path style=" stroke:none;fill-rule:nonzero;fill:rgb(92.941176%,10.980392%,18.039216%);fill-opacity:1;" d="M 15.792969 6.882812 C 14.398438 6.882812 13.132812 7.410156 12.171875 8.273438 C 11.984375 8.453125 11.804688 8.644531 11.632812 8.84375 L 12.722656 8.84375 C 12.871094 9.023438 13.007812 9.222656 13.132812 9.414062 L 11.222656 9.414062 C 11.105469 9.605469 11 9.792969 10.90625 9.984375 L 13.4375 9.984375 C 13.523438 10.171875 13.609375 10.363281 13.671875 10.554688 L 10.6875 10.554688 C 10.621094 10.742188 10.570312 10.933594 10.527344 11.132812 L 13.828125 11.132812 C 13.902344 11.492188 13.945312 11.882812 13.945312 12.273438 C 13.945312 12.863281 13.851562 13.445312 13.671875 13.984375 L 10.6875 13.984375 C 10.75 14.171875 10.824219 14.363281 10.90625 14.550781 L 13.4375 14.550781 C 13.34375 14.742188 13.25 14.941406 13.132812 15.121094 L 11.222656 15.121094 C 11.351562 15.324219 11.488281 15.511719 11.632812 15.691406 L 12.722656 15.691406 C 12.554688 15.894531 12.375 16.082031 12.171875 16.261719 C 13.132812 17.128906 14.398438 17.65625 15.792969 17.65625 C 18.769531 17.65625 21.175781 15.25 21.175781 12.273438 C 21.175781 9.296875 18.769531 6.882812 15.792969 6.882812 Z M 15.792969 6.882812 "/>
<path style=" stroke:none;fill-rule:nonzero;fill:rgb(100%,100%,100%);fill-opacity:1;" d="M 19.316406 13.433594 C 19.316406 13.339844 19.402344 13.265625 19.496094 13.265625 C 19.589844 13.265625 19.664062 13.339844 19.664062 13.433594 C 19.664062 13.527344 19.589844 13.613281 19.496094 13.613281 C 19.402344 13.613281 19.316406 13.527344 19.316406 13.433594 Z M 19.496094 13.570312 C 19.570312 13.570312 19.621094 13.507812 19.621094 13.433594 C 19.621094 13.359375 19.570312 13.308594 19.496094 13.308594 C 19.421875 13.308594 19.359375 13.359375 19.359375 13.433594 C 19.359375 13.507812 19.421875 13.570312 19.496094 13.570312 Z M 19.476562 13.507812 L 19.433594 13.507812 L 19.433594 13.359375 L 19.496094 13.359375 C 19.515625 13.359375 19.527344 13.359375 19.539062 13.371094 C 19.550781 13.382812 19.558594 13.390625 19.558594 13.402344 C 19.558594 13.421875 19.546875 13.445312 19.527344 13.445312 L 19.558594 13.507812 L 19.515625 13.507812 L 19.496094 13.453125 L 19.476562 13.453125 Z M 19.476562 13.421875 L 19.496094 13.421875 C 19.496094 13.421875 19.507812 13.421875 19.515625 13.421875 C 19.515625 13.421875 19.515625 13.414062 19.515625 13.402344 L 19.515625 13.390625 C 19.507812 13.390625 19.496094 13.390625 19.484375 13.390625 L 19.476562 13.390625 Z M 19.476562 13.421875 "/>
<path style=" stroke:none;fill-rule:nonzero;fill:rgb(100%,100%,100%);fill-opacity:1;" d="M 7.890625 13.613281 L 7.214844 13.613281 L 7.613281 11.511719 L 6.695312 13.613281 L 6.085938 13.613281 L 5.980469 11.523438 L 5.578125 13.613281 L 4.964844 13.613281 L 5.484375 10.878906 L 6.539062 10.878906 L 6.589844 12.570312 L 7.332031 10.878906 L 8.414062 10.878906 Z M 7.890625 13.613281 "/>
<path style=" stroke:none;fill-rule:nonzero;fill:rgb(100%,100%,100%);fill-opacity:1;" d="M 15.382812 13.582031 C 15.191406 13.632812 15.054688 13.65625 14.894531 13.65625 C 14.558594 13.65625 14.367188 13.488281 14.367188 13.171875 C 14.367188 13.105469 14.378906 13.042969 14.386719 12.96875 L 14.429688 12.746094 L 14.464844 12.578125 L 14.769531 10.878906 L 15.433594 10.878906 L 15.339844 11.386719 L 15.6875 11.386719 L 15.589844 11.925781 L 15.242188 11.925781 L 15.074219 12.855469 C 15.0625 12.894531 15.054688 12.925781 15.054688 12.949219 C 15.054688 13.066406 15.128906 13.117188 15.285156 13.117188 C 15.359375 13.117188 15.421875 13.105469 15.464844 13.097656 Z M 15.382812 13.582031 "/>
<path style=" stroke:none;fill-rule:nonzero;fill:rgb(100%,100%,100%);fill-opacity:1;" d="M 17.332031 11.40625 C 17.28125 11.386719 17.269531 11.386719 17.257812 11.386719 C 17.226562 11.375 17.207031 11.375 17.207031 11.367188 C 17.183594 11.367188 17.164062 11.367188 17.132812 11.367188 C 16.910156 11.367188 16.753906 11.460938 16.550781 11.722656 L 16.613281 11.386719 L 16.003906 11.386719 L 15.589844 13.613281 L 16.265625 13.613281 C 16.507812 12.25 16.605469 12.007812 16.929688 12.007812 C 16.953125 12.007812 16.984375 12.019531 17.015625 12.019531 L 17.089844 12.039062 Z M 17.332031 11.40625 "/>
<path style=" stroke:none;fill-rule:nonzero;fill:rgb(100%,100%,100%);fill-opacity:1;" d="M 12.722656 12.09375 C 12.722656 12.367188 12.878906 12.570312 13.238281 12.707031 C 13.511719 12.820312 13.554688 12.855469 13.554688 12.960938 C 13.554688 13.097656 13.429688 13.160156 13.164062 13.160156 C 12.964844 13.160156 12.773438 13.128906 12.550781 13.066406 L 12.46875 13.582031 L 12.5 13.582031 L 12.617188 13.613281 C 12.65625 13.613281 12.722656 13.625 12.796875 13.625 C 12.953125 13.644531 13.082031 13.644531 13.175781 13.644531 C 13.882812 13.644531 14.21875 13.414062 14.21875 12.90625 C 14.21875 12.601562 14.082031 12.421875 13.734375 12.285156 C 13.449219 12.179688 13.417969 12.148438 13.417969 12.042969 C 13.417969 11.925781 13.535156 11.863281 13.753906 11.863281 C 13.882812 11.863281 14.070312 11.871094 14.242188 11.894531 L 14.335938 11.386719 C 14.15625 11.355469 13.894531 11.34375 13.746094 11.34375 C 12.984375 11.34375 12.722656 11.683594 12.722656 12.09375 Z M 12.722656 12.09375 "/>
<path style=" stroke:none;fill-rule:nonzero;fill:rgb(100%,100%,100%);fill-opacity:1;" d="M 10.0625 13.613281 L 9.511719 13.613281 L 9.523438 13.378906 C 9.355469 13.558594 9.125 13.644531 8.816406 13.644531 C 8.457031 13.644531 8.207031 13.402344 8.207031 13.042969 C 8.207031 12.503906 8.636719 12.1875 9.386719 12.1875 C 9.460938 12.1875 9.554688 12.1875 9.660156 12.199219 C 9.683594 12.125 9.683594 12.09375 9.683594 12.0625 C 9.683594 11.914062 9.566406 11.863281 9.25 11.863281 C 9.058594 11.863281 8.847656 11.882812 8.703125 11.914062 L 8.605469 11.945312 L 8.542969 11.957031 L 8.636719 11.460938 C 8.976562 11.375 9.1875 11.34375 9.441406 11.34375 C 10.019531 11.34375 10.316406 11.566406 10.316406 11.988281 C 10.316406 12.105469 10.304688 12.1875 10.261719 12.429688 L 10.125 13.222656 L 10.105469 13.359375 L 10.082031 13.476562 L 10.074219 13.550781 Z M 9.578125 12.621094 C 9.503906 12.609375 9.472656 12.609375 9.429688 12.609375 C 9.050781 12.609375 8.859375 12.726562 8.859375 12.949219 C 8.859375 13.085938 8.945312 13.179688 9.089844 13.179688 C 9.367188 13.179688 9.566406 12.949219 9.578125 12.621094 Z M 9.578125 12.621094 "/>
<path style=" stroke:none;fill-rule:nonzero;fill:rgb(100%,100%,100%);fill-opacity:1;" d="M 12.265625 13.558594 C 12.035156 13.625 11.8125 13.65625 11.582031 13.65625 C 10.832031 13.65625 10.441406 13.308594 10.441406 12.652344 C 10.441406 11.894531 10.9375 11.332031 11.613281 11.332031 C 12.164062 11.332031 12.511719 11.648438 12.511719 12.136719 C 12.511719 12.304688 12.488281 12.464844 12.4375 12.683594 L 11.097656 12.683594 C 11.097656 12.726562 11.097656 12.738281 11.097656 12.757812 C 11.097656 13.011719 11.285156 13.148438 11.675781 13.148438 C 11.917969 13.148438 12.140625 13.105469 12.375 13.011719 Z M 11.910156 12.242188 C 11.910156 12.199219 11.910156 12.15625 11.910156 12.125 C 11.910156 11.945312 11.792969 11.839844 11.59375 11.839844 C 11.382812 11.839844 11.234375 11.988281 11.171875 12.242188 Z M 11.910156 12.242188 "/>
<path style=" stroke:none;fill-rule:nonzero;fill:rgb(100%,100%,100%);fill-opacity:1;" d="M 19.421875 12.601562 C 19.316406 13.339844 18.800781 13.664062 18.113281 13.664062 C 17.363281 13.664062 17.058594 13.210938 17.058594 12.640625 C 17.058594 11.863281 17.574219 11.324219 18.378906 11.324219 C 19.074219 11.324219 19.441406 11.765625 19.441406 12.324219 C 19.445312 12.464844 19.445312 12.472656 19.421875 12.601562 Z M 18.726562 12.316406 C 18.726562 12.082031 18.628906 11.871094 18.355469 11.871094 C 18.019531 11.871094 17.808594 12.273438 17.808594 12.632812 C 17.808594 12.925781 17.957031 13.128906 18.1875 13.128906 C 18.335938 13.128906 18.652344 12.925781 18.703125 12.589844 C 18.726562 12.503906 18.726562 12.410156 18.726562 12.316406 Z M 18.726562 12.316406 "/>
</g>
</svg>
