<?xml version="1.0" encoding="UTF-8"?>
<svg xmlns="http://www.w3.org/2000/svg" xmlns:xlink="http://www.w3.org/1999/xlink" width="25pt" height="25pt" viewBox="0 0 25 25" version="1.1">
<g id="surface1">
<path style=" stroke:none;fill-rule:nonzero;fill:rgb(23.529412%,50.196078%,67.843137%);fill-opacity:1;" d="M 25 12.5 C 25 19.402344 19.402344 25 12.5 25 C 5.597656 25 0 19.402344 0 12.5 C 0 5.597656 5.597656 0 12.5 0 C 19.402344 0 25 5.597656 25 12.5 Z M 25 12.5 "/>
<path style=" stroke:none;fill-rule:nonzero;fill:rgb(57.647059%,10.588235%,11.372549%);fill-opacity:1;" d="M 8.414062 6.433594 C 5.257812 6.453125 2.707031 9.023438 2.707031 12.191406 C 2.707031 15.367188 5.277344 17.945312 8.449219 17.945312 C 9.9375 17.945312 11.292969 17.378906 12.316406 16.445312 C 12.527344 16.257812 12.71875 16.050781 12.898438 15.832031 L 11.722656 15.832031 C 11.566406 15.640625 11.421875 15.441406 11.292969 15.238281 L 13.324219 15.238281 C 13.449219 15.039062 13.558594 14.832031 13.660156 14.621094 L 10.960938 14.621094 C 10.867188 14.421875 10.789062 14.222656 10.71875 14.015625 L 13.898438 14.015625 C 14.089844 13.441406 14.195312 12.828125 14.195312 12.191406 C 14.195312 11.765625 14.148438 11.355469 14.0625 10.957031 L 10.550781 10.957031 C 10.59375 10.753906 10.648438 10.550781 10.714844 10.351562 L 13.894531 10.351562 C 13.824219 10.140625 13.742188 9.9375 13.648438 9.734375 L 10.960938 9.734375 C 11.054688 9.527344 11.167969 9.328125 11.289062 9.132812 L 13.316406 9.132812 C 13.183594 8.914062 13.03125 8.710938 12.871094 8.515625 L 11.742188 8.515625 C 11.914062 8.308594 12.109375 8.113281 12.316406 7.933594 C 11.296875 7 9.9375 6.433594 8.449219 6.433594 C 8.4375 6.433594 8.425781 6.433594 8.414062 6.433594 Z M 8.414062 6.433594 "/>
<path style=" stroke:none;fill-rule:nonzero;fill:rgb(94.509804%,40%,13.333333%);fill-opacity:1;" d="M 21.902344 12.191406 C 21.902344 15.371094 19.332031 17.949219 16.15625 17.949219 C 12.984375 17.949219 10.414062 15.375 10.410156 12.195312 L 10.410156 12.191406 C 10.410156 9.011719 12.980469 6.433594 16.15625 6.433594 C 19.328125 6.433594 21.898438 9.007812 21.902344 12.1875 C 21.902344 12.1875 21.902344 12.191406 21.902344 12.191406 Z M 21.902344 12.191406 "/>
<path style=" stroke:none;fill-rule:nonzero;fill:rgb(96.862745%,59.607843%,11.372549%);fill-opacity:1;" d="M 21.902344 12.253906 C 21.902344 15.433594 19.332031 18.011719 16.15625 18.015625 C 12.984375 18.015625 10.414062 15.4375 10.410156 12.257812 L 10.410156 12.253906 C 10.410156 9.074219 12.980469 6.496094 16.15625 6.496094 C 19.328125 6.496094 21.898438 9.074219 21.902344 12.253906 Z M 21.902344 12.253906 "/>
<path style=" stroke:none;fill-rule:nonzero;fill:rgb(79.607843%,12.54902%,14.901961%);fill-opacity:1;" d="M 8.414062 6.5 C 5.257812 6.519531 2.707031 9.089844 2.707031 12.253906 C 2.707031 15.433594 5.277344 18.011719 8.449219 18.011719 C 9.9375 18.011719 11.292969 17.445312 12.316406 16.511719 C 12.527344 16.320312 12.71875 16.117188 12.898438 15.894531 L 11.722656 15.894531 C 11.566406 15.707031 11.421875 15.507812 11.292969 15.304688 L 13.324219 15.304688 C 13.449219 15.105469 13.558594 14.898438 13.660156 14.6875 L 10.960938 14.6875 C 10.867188 14.488281 10.789062 14.285156 10.71875 14.082031 L 13.898438 14.082031 C 14.089844 13.507812 14.195312 12.894531 14.195312 12.253906 C 14.195312 11.832031 14.148438 11.417969 14.0625 11.023438 L 10.550781 11.023438 C 10.59375 10.816406 10.648438 10.617188 10.714844 10.417969 L 13.894531 10.417969 C 13.824219 10.207031 13.742188 10 13.648438 9.800781 L 10.960938 9.800781 C 11.054688 9.59375 11.167969 9.390625 11.289062 9.195312 L 13.316406 9.195312 C 13.183594 8.980469 13.03125 8.773438 12.871094 8.582031 L 11.742188 8.582031 C 11.914062 8.375 12.109375 8.179688 12.316406 8 C 11.296875 7.066406 9.9375 6.5 8.449219 6.5 C 8.4375 6.5 8.425781 6.5 8.414062 6.5 Z M 8.414062 6.5 "/>
<path style=" stroke:none;fill-rule:nonzero;fill:rgb(100%,100%,100%);fill-opacity:1;" d="M 10.515625 13.722656 L 10.59375 13.199219 C 10.550781 13.199219 10.488281 13.21875 10.433594 13.21875 C 10.222656 13.21875 10.199219 13.105469 10.210938 13.019531 L 10.382812 11.957031 L 10.707031 11.957031 L 10.785156 11.382812 L 10.480469 11.382812 L 10.542969 11.023438 L 9.929688 11.023438 C 9.917969 11.035156 9.570312 13.039062 9.570312 13.28125 C 9.570312 13.644531 9.773438 13.804688 10.058594 13.800781 C 10.28125 13.800781 10.453125 13.738281 10.515625 13.722656 Z M 10.515625 13.722656 "/>
<path style=" stroke:none;fill-rule:nonzero;fill:rgb(100%,100%,100%);fill-opacity:1;" d="M 10.710938 12.726562 C 10.710938 13.59375 11.28125 13.800781 11.765625 13.800781 C 12.214844 13.800781 12.414062 13.699219 12.414062 13.699219 L 12.519531 13.109375 C 12.519531 13.109375 12.179688 13.257812 11.871094 13.257812 C 11.214844 13.257812 11.328125 12.769531 11.328125 12.769531 L 12.574219 12.769531 C 12.574219 12.769531 12.652344 12.371094 12.652344 12.210938 C 12.652344 11.804688 12.453125 11.3125 11.78125 11.3125 C 11.164062 11.3125 10.710938 11.976562 10.710938 12.726562 Z M 11.78125 11.863281 C 12.128906 11.863281 12.0625 12.25 12.0625 12.28125 L 11.386719 12.28125 C 11.386719 12.242188 11.449219 11.863281 11.78125 11.863281 Z M 11.78125 11.863281 "/>
<path style=" stroke:none;fill-rule:nonzero;fill:rgb(100%,100%,100%);fill-opacity:1;" d="M 15.65625 13.722656 L 15.765625 13.050781 C 15.765625 13.050781 15.464844 13.203125 15.257812 13.203125 C 14.824219 13.203125 14.652344 12.871094 14.652344 12.515625 C 14.652344 11.792969 15.023438 11.394531 15.441406 11.394531 C 15.753906 11.394531 16.003906 11.570312 16.003906 11.570312 L 16.101562 10.917969 C 16.101562 10.917969 15.730469 10.769531 15.414062 10.769531 C 14.707031 10.769531 14.019531 11.382812 14.019531 12.535156 C 14.019531 13.300781 14.390625 13.804688 15.121094 13.804688 C 15.328125 13.804688 15.65625 13.722656 15.65625 13.722656 Z M 15.65625 13.722656 "/>
<path style=" stroke:none;fill-rule:nonzero;fill:rgb(100%,100%,100%);fill-opacity:1;" d="M 7.152344 11.324219 C 6.734375 11.324219 6.410156 11.457031 6.410156 11.457031 L 6.324219 11.984375 C 6.324219 11.984375 6.589844 11.878906 6.988281 11.878906 C 7.214844 11.878906 7.382812 11.902344 7.382812 12.089844 C 7.382812 12.203125 7.363281 12.242188 7.363281 12.242188 C 7.363281 12.242188 7.183594 12.226562 7.101562 12.226562 C 6.570312 12.226562 6.015625 12.453125 6.015625 13.136719 C 6.015625 13.675781 6.378906 13.796875 6.605469 13.796875 C 7.039062 13.796875 7.222656 13.515625 7.234375 13.515625 L 7.214844 13.75 L 7.75 13.75 L 7.992188 12.0625 C 7.992188 11.347656 7.367188 11.324219 7.152344 11.324219 Z M 7.28125 12.695312 C 7.292969 12.800781 7.21875 13.285156 6.851562 13.285156 C 6.660156 13.285156 6.609375 13.136719 6.609375 13.050781 C 6.609375 12.882812 6.703125 12.683594 7.148438 12.683594 C 7.253906 12.683594 7.265625 12.695312 7.28125 12.695312 Z M 7.28125 12.695312 "/>
<path style=" stroke:none;fill-rule:nonzero;fill:rgb(100%,100%,100%);fill-opacity:1;" d="M 8.566406 13.785156 C 8.703125 13.785156 9.488281 13.820312 9.488281 13.003906 C 9.488281 12.246094 8.761719 12.394531 8.761719 12.089844 C 8.761719 11.9375 8.878906 11.886719 9.097656 11.886719 C 9.183594 11.886719 9.515625 11.917969 9.515625 11.917969 L 9.59375 11.375 C 9.59375 11.375 9.378906 11.328125 9.027344 11.328125 C 8.574219 11.328125 8.117188 11.507812 8.117188 12.125 C 8.117188 12.828125 8.882812 12.757812 8.882812 13.054688 C 8.882812 13.25 8.667969 13.265625 8.503906 13.265625 C 8.21875 13.265625 7.960938 13.167969 7.960938 13.171875 L 7.878906 13.710938 C 7.890625 13.714844 8.050781 13.785156 8.566406 13.785156 Z M 8.566406 13.785156 "/>
<path style=" stroke:none;fill-rule:nonzero;fill:rgb(100%,100%,100%);fill-opacity:1;" d="M 20.722656 10.835938 L 20.589844 11.65625 C 20.589844 11.65625 20.359375 11.339844 20 11.339844 C 19.4375 11.339844 18.972656 12.015625 18.972656 12.792969 C 18.972656 13.296875 19.222656 13.789062 19.730469 13.789062 C 20.097656 13.789062 20.300781 13.53125 20.300781 13.53125 L 20.273438 13.75 L 20.867188 13.75 L 21.335938 10.835938 Z M 20.4375 12.4375 C 20.4375 12.761719 20.277344 13.191406 19.945312 13.191406 C 19.726562 13.191406 19.625 13.007812 19.625 12.71875 C 19.625 12.242188 19.835938 11.929688 20.105469 11.929688 C 20.324219 11.929688 20.4375 12.078125 20.4375 12.4375 Z M 20.4375 12.4375 "/>
<path style=" stroke:none;fill-rule:nonzero;fill:rgb(100%,100%,100%);fill-opacity:1;" d="M 3.839844 13.753906 L 4.210938 11.550781 L 4.265625 13.753906 L 4.6875 13.753906 L 5.472656 11.550781 L 5.125 13.753906 L 5.753906 13.753906 L 6.234375 10.835938 L 5.265625 10.835938 L 4.664062 12.625 L 4.632812 10.835938 L 3.738281 10.835938 L 3.25 13.753906 Z M 3.839844 13.753906 "/>
<path style=" stroke:none;fill-rule:nonzero;fill:rgb(100%,100%,100%);fill-opacity:1;" d="M 13.265625 13.757812 C 13.441406 12.742188 13.476562 11.917969 13.898438 12.070312 C 13.972656 11.675781 14.046875 11.523438 14.128906 11.359375 C 14.128906 11.359375 14.089844 11.351562 14.007812 11.351562 C 13.734375 11.351562 13.53125 11.726562 13.53125 11.726562 L 13.585938 11.382812 L 13.015625 11.382812 L 12.636719 13.757812 Z M 13.265625 13.757812 "/>
<path style=" stroke:none;fill-rule:nonzero;fill:rgb(100%,100%,100%);fill-opacity:1;" d="M 17.066406 11.324219 C 16.648438 11.324219 16.324219 11.457031 16.324219 11.457031 L 16.238281 11.984375 C 16.238281 11.984375 16.503906 11.878906 16.902344 11.878906 C 17.132812 11.878906 17.296875 11.902344 17.296875 12.089844 C 17.296875 12.203125 17.277344 12.242188 17.277344 12.242188 C 17.277344 12.242188 17.097656 12.226562 17.015625 12.226562 C 16.484375 12.226562 15.929688 12.453125 15.929688 13.136719 C 15.929688 13.675781 16.292969 13.796875 16.519531 13.796875 C 16.953125 13.796875 17.136719 13.515625 17.148438 13.515625 L 17.128906 13.75 L 17.667969 13.75 L 17.90625 12.0625 C 17.90625 11.347656 17.285156 11.324219 17.066406 11.324219 Z M 17.199219 12.695312 C 17.210938 12.800781 17.132812 13.285156 16.765625 13.285156 C 16.574219 13.285156 16.527344 13.136719 16.527344 13.050781 C 16.527344 12.882812 16.617188 12.683594 17.066406 12.683594 C 17.167969 12.683594 17.179688 12.695312 17.199219 12.695312 Z M 17.199219 12.695312 "/>
<path style=" stroke:none;fill-rule:nonzero;fill:rgb(100%,100%,100%);fill-opacity:1;" d="M 18.398438 13.757812 C 18.578125 12.742188 18.609375 11.917969 19.035156 12.070312 C 19.109375 11.675781 19.179688 11.523438 19.261719 11.359375 C 19.261719 11.359375 19.222656 11.351562 19.144531 11.351562 C 18.871094 11.351562 18.667969 11.726562 18.667969 11.726562 L 18.722656 11.382812 L 18.152344 11.382812 L 17.769531 13.757812 Z M 18.398438 13.757812 "/>
</g>
</svg>
