<?xml version="1.0" encoding="UTF-8"?>
<svg xmlns="http://www.w3.org/2000/svg" xmlns:xlink="http://www.w3.org/1999/xlink" width="16pt" height="16pt" viewBox="0 0 16 16" version="1.1">
<g id="surface1">
<path style=" stroke:none;fill-rule:nonzero;fill:rgb(0%,0%,0%);fill-opacity:1;" d="M 10.433594 9.421875 L 9.902344 9.421875 L 9.710938 9.242188 C 10.519531 8.300781 10.9375 7.011719 10.710938 5.644531 C 10.394531 3.777344 8.832031 2.28125 6.945312 2.050781 C 4.097656 1.703125 1.703125 4.097656 2.050781 6.945312 C 2.28125 8.832031 3.777344 10.394531 5.644531 10.710938 C 7.011719 10.9375 8.300781 10.519531 9.242188 9.710938 L 9.421875 9.902344 L 9.421875 10.433594 L 12.285156 13.292969 C 12.558594 13.570312 13.011719 13.570312 13.289062 13.292969 C 13.5625 13.015625 13.5625 12.566406 13.289062 12.289062 Z M 6.394531 9.421875 C 4.71875 9.421875 3.367188 8.070312 3.367188 6.394531 C 3.367188 4.71875 4.71875 3.367188 6.394531 3.367188 C 8.070312 3.367188 9.421875 4.71875 9.421875 6.394531 C 9.421875 8.070312 8.070312 9.421875 6.394531 9.421875 Z M 6.394531 9.421875 "/>
</g>
</svg>
