<?xml version="1.0" encoding="UTF-8"?>
<svg xmlns="http://www.w3.org/2000/svg" xmlns:xlink="http://www.w3.org/1999/xlink" width="17pt" height="17pt" viewBox="0 0 17 17" version="1.1">
<g id="surface1">
<path style=" stroke:none;fill-rule:nonzero;fill:rgb(57.647059%,57.647059%,57.647059%);fill-opacity:1;" d="M 10.65625 9.6875 L 10.148438 9.6875 L 9.964844 9.515625 C 10.738281 8.613281 11.136719 7.382812 10.921875 6.074219 C 10.617188 4.285156 9.121094 2.859375 7.320312 2.636719 C 4.59375 2.304688 2.304688 4.59375 2.636719 7.320312 C 2.859375 9.121094 4.285156 10.617188 6.074219 10.921875 C 7.382812 11.136719 8.613281 10.738281 9.515625 9.964844 L 9.6875 10.148438 L 9.6875 10.65625 L 12.425781 13.390625 C 12.6875 13.65625 13.121094 13.65625 13.386719 13.390625 C 13.648438 13.125 13.648438 12.695312 13.386719 12.429688 Z M 6.792969 9.6875 C 5.1875 9.6875 3.894531 8.394531 3.894531 6.792969 C 3.894531 5.1875 5.1875 3.894531 6.792969 3.894531 C 8.394531 3.894531 9.6875 5.1875 9.6875 6.792969 C 9.6875 8.394531 8.394531 9.6875 6.792969 9.6875 Z M 6.792969 9.6875 "/>
</g>
</svg>
