<?xml version="1.0" encoding="UTF-8"?>
<svg xmlns="http://www.w3.org/2000/svg" xmlns:xlink="http://www.w3.org/1999/xlink" width="18pt" height="18pt" viewBox="0 0 18 18" version="1.1">
<g id="surface1">
<path style=" stroke:none;fill-rule:nonzero;fill:rgb(59.607843%,59.607843%,59.607843%);fill-opacity:1;" d="M 14.574219 11.652344 C 15.117188 11.242188 15.511719 10.691406 15.710938 10.042969 L 17.820312 3.792969 L 4.257812 3.792969 L 4.109375 2.136719 C 4.058594 1.554688 3.789062 1.015625 3.359375 0.617188 C 2.925781 0.226562 2.367188 0.0078125 1.78125 0.0078125 L 0 0.0078125 L 0 1.394531 L 1.78125 1.394531 C 2.273438 1.394531 2.679688 1.769531 2.722656 2.257812 L 3.8125 14.332031 C 3.8125 14.332031 3.8125 14.335938 3.8125 14.335938 C 3.917969 15.402344 4.714844 16.238281 5.738281 16.410156 C 6.015625 17.226562 6.777344 17.8125 7.683594 17.8125 C 8.574219 17.8125 9.332031 17.246094 9.617188 16.453125 L 11.25 16.453125 C 11.535156 17.246094 12.296875 17.8125 13.179688 17.8125 C 14.316406 17.8125 15.230469 16.894531 15.230469 15.757812 C 15.230469 14.628906 14.316406 13.707031 13.179688 13.707031 C 12.296875 13.707031 11.535156 14.273438 11.25 15.0625 L 9.617188 15.0625 C 9.332031 14.273438 8.574219 13.707031 7.683594 13.707031 C 6.828125 13.707031 6.089844 14.234375 5.785156 14.984375 C 5.464844 14.855469 5.230469 14.5625 5.195312 14.203125 L 5.023438 12.28125 L 12.691406 12.28125 C 13.371094 12.28125 14.023438 12.066406 14.574219 11.652344 Z M 13.179688 15.097656 C 13.542969 15.097656 13.839844 15.394531 13.839844 15.757812 C 13.839844 16.121094 13.542969 16.425781 13.179688 16.425781 C 12.816406 16.425781 12.519531 16.121094 12.519531 15.757812 C 12.519531 15.394531 12.816406 15.097656 13.179688 15.097656 Z M 7.683594 15.097656 C 8.046875 15.097656 8.347656 15.394531 8.347656 15.757812 C 8.347656 16.121094 8.046875 16.425781 7.683594 16.425781 C 7.320312 16.425781 7.027344 16.121094 7.027344 15.757812 C 7.027344 15.394531 7.320312 15.097656 7.683594 15.097656 Z M 4.894531 10.890625 L 4.378906 5.1875 L 15.882812 5.1875 L 14.386719 9.605469 L 14.382812 9.621094 C 14.152344 10.371094 13.457031 10.890625 12.691406 10.890625 Z M 4.894531 10.890625 "/>
</g>
</svg>
