<?xml version="1.0" encoding="UTF-8"?>
<svg width="16pt" height="15pt" version="1.1" viewBox="0 0 16 15" xmlns="http://www.w3.org/2000/svg">
<g>
<path d="m0.86719 4.1055h14.266v0.003906h-14.266z" fill="#c32026"/>
<path d="m8 0c-0.15625 0-0.3125 0.0039062-0.46875 0.011719h0.9375c-0.15625-0.0078126-0.3125-0.011719-0.46875-0.011719z" fill="#c32026"/>
<path d="m10.363 2.7422h3.8203c-0.45312-0.51563-0.98047-0.97656-1.5664-1.3633h-2.8672c0.23828 0.39062 0.44141 0.85156 0.61328 1.3633z" fill="#e6e6e6"/>
<path d="m9.75 1.3789h2.8711c-1.1875-0.78906-2.6133-1.2812-4.1523-1.3672h-0.24609c0.72656 0.085937 1.0586 0.58984 1.5273 1.3672z" fill="#dc2f27"/>
<path d="m15.703 5.4727c-0.14453-0.47656-0.33594-0.93359-0.57031-1.3672h-4.3945c0.089844 0.44141 0.16016 0.89844 0.21094 1.3672z" fill="#e6e6e6"/>
<path d="m10.492 4.1055h4.6406c-0.26172-0.48438-0.58203-0.94531-0.94922-1.3633h-4.0547c0.14453 0.42578 0.26562 0.88281 0.36328 1.3633z" fill="#dc2f27"/>
<path d="m11.117 8.1992h4.8477c0.023437-0.23047 0.035156-0.46094 0.035156-0.69922 0-0.22266-0.011719-0.44531-0.03125-0.66406h-4.8477c0.015625 0.45312 0.015625 0.91016-0.003906 1.3633z" fill="#e6e6e6"/>
<path d="m15.969 6.8359c-0.046875-0.46875-0.13672-0.92578-0.26562-1.3633h-4.957c0.050781 0.44531 0.082031 0.90234 0.097656 1.3633z" fill="#dc2f27"/>
<path d="m10.656 10.93h4.457c0.23828-0.42969 0.42969-0.88672 0.57812-1.3633h-4.8203c-0.054688 0.46875-0.125 0.92578-0.21484 1.3633z" fill="#e6e6e6"/>
<path d="m15.691 9.5664c0.13281-0.44141 0.22656-0.89453 0.27344-1.3633h-4.9961c-0.015625 0.45703-0.050781 0.91406-0.10156 1.3633z" fill="#dc2f27"/>
<path d="m12.562 13.66c0.59375-0.38672 1.1289-0.84766 1.5898-1.3672h-3.7539c-0.17578 0.51562-0.38672 0.97656-0.625 1.3672z" fill="#e6e6e6"/>
<path d="m10.254 12.297h3.8945c0.375-0.42188 0.69531-0.87891 0.96484-1.3672h-4.4922c-0.097656 0.48437-0.21875 0.94141-0.36719 1.3672z" fill="#dc2f27"/>
<path d="m7.7109 14.996c-0.015626 0-0.035157-0.003906-0.050782-0.003906 0.015625 0 0.035156 0.003906 0.050782 0.003906z" fill="#dc2f27"/>
<path d="m8 15c1.6953 0 3.2656-0.49609 4.5625-1.3398h-2.8945c-0.51562 0.82812-0.85547 1.3398-1.668 1.3398z" fill="#dc2f27"/>
<path d="m8 15c-0.097656 0-0.19531-0.003906-0.28906-0.003906 0.097656 0 0.19141 0.003906 0.28906 0.003906z" fill="#c32026"/>
<path d="m10.016 1.3789h-6.6367c-0.58203 0.38672-1.1094 0.84766-1.5625 1.3633h8.8125c-0.17188-0.51172-0.375-0.97266-0.61328-1.3633z" fill="#f3f4f4"/>
<path d="m3.3789 1.3789h6.6367c-0.46875-0.77734-1.0703-1.2812-1.793-1.3672h-0.69141c-1.5391 0.085937-2.9648 0.57813-4.1523 1.3672z" fill="#e63625"/>
<path d="m0.29688 5.4727h10.906c-0.050781-0.46875-0.12109-0.92578-0.21094-1.3672h-10.125c-0.23438 0.43359-0.42578 0.89062-0.57031 1.3672z" fill="#f3f4f4"/>
<path d="m1.8164 2.7422c-0.36719 0.41797-0.6875 0.87891-0.94922 1.3633h10.125c-0.097657-0.48047-0.21875-0.9375-0.36328-1.3633z" fill="#e63625"/>
<path d="m0 7.5c0 0.23828 0.011719 0.46875 0.035156 0.69922h11.266c0.015625-0.45312 0.015625-0.91016 0-1.3633h-11.27c-0.019531 0.21875-0.03125 0.44141-0.03125 0.66406z" fill="#f3f4f4"/>
<path d="m0.03125 6.8359h11.27c-0.015625-0.46094-0.046875-0.91797-0.097656-1.3633h-10.906c-0.12891 0.44141-0.21875 0.89453-0.26562 1.3633z" fill="#e63625"/>
<path d="m11.199 9.5664h-10.891c0.14844 0.47656 0.33984 0.93359 0.57812 1.3633h10.098c0.089844-0.4375 0.16016-0.89453 0.21484-1.3633z" fill="#f3f4f4"/>
<path d="m0.30859 9.5664h10.891c0.050781-0.44922 0.085937-0.90625 0.10156-1.3633h-11.266c0.046875 0.46875 0.14062 0.92188 0.27344 1.3633z" fill="#e63625"/>
<path d="m3.4375 13.66h6.5547c0.24219-0.39062 0.44922-0.85156 0.625-1.3672h-8.7695c0.46094 0.51953 0.99609 0.98047 1.5898 1.3672z" fill="#f3f4f4"/>
<path d="m0.88672 10.93c0.26953 0.48828 0.58984 0.94531 0.96094 1.3672h8.7695c0.14453-0.42578 0.26562-0.88281 0.36719-1.3672z" fill="#e63625"/>
<path d="m7.6602 14.992c0.015625 0 0.035156 0.003906 0.050782 0.003906 0.09375 0 0.19141 0.003906 0.28906 0.003906 0.8125 0 1.4766-0.51172 1.9922-1.3398h-6.5547c1.207 0.78516 2.6562 1.2734 4.2227 1.332z" fill="#e63625"/>
<path d="m7.8359 0.0039062c-4.1016 0.078125-7.4414 3.0469-7.8008 6.8203h7.8008z" fill="#283890"/>
<path d="m1.6016 4.25 0.12109 0.35156h0.39453l-0.32031 0.21875 0.125 0.35156-0.32031-0.21875-0.32031 0.21875 0.12109-0.35156-0.32031-0.21875h0.39844z" fill="#eee"/>
<path d="m1.6016 5.4922 0.12109 0.35156h0.39453l-0.32031 0.21875 0.125 0.35156-0.32031-0.21875-0.32031 0.21875 0.12109-0.35156-0.32031-0.21875h0.39844z" fill="#eee"/>
<path d="m2.9258 2.3828 0.12109 0.35547h0.39453l-0.31641 0.21484 0.12109 0.35156-0.32031-0.21484-0.31641 0.21484 0.12109-0.35156-0.32031-0.21484h0.39453z" fill="#eee"/>
<path d="m2.9258 3.6289 0.12109 0.35156h0.39453l-0.31641 0.21484 0.12109 0.35547-0.32031-0.21875-0.31641 0.21875 0.12109-0.35547-0.32031-0.21484h0.39453z" fill="#eee"/>
<path d="m2.9258 4.8711 0.12109 0.35156h0.39453l-0.31641 0.21875 0.12109 0.35156-0.32031-0.21875-0.31641 0.21875 0.12109-0.35156-0.32031-0.21875h0.39453z" fill="#eee"/>
<path d="m0.59375 5.793-0.12109-0.35156 0.32031-0.21875h-0.39453l-0.011719-0.027344c-0.042969 0.12891-0.082031 0.25391-0.11719 0.38281l0.003907-0.003906z" fill="#eee"/>
<path d="m1.2812 3.9258 0.32031-0.21484 0.32031 0.21484-0.125-0.35156 0.32031-0.21484h-0.39453l-0.12109-0.35156-0.12109 0.35156h-0.14844c-0.027343 0.035156-0.050781 0.074219-0.078125 0.11328l0.14844 0.10156z" fill="#eee"/>
<path d="m2.9258 1.8438 0.32031 0.21875-0.12109-0.35156 0.31641-0.21875h-0.22656c-0.19141 0.13672-0.37891 0.28125-0.55859 0.43359l-0.050781 0.13672z" fill="#eee"/>
<path d="m3.9336 1.4414 0.32031-0.21875 0.31641 0.21875-0.12109-0.35156 0.32031-0.21875h-0.39453l-0.015625-0.046875c-0.13672 0.0625-0.26562 0.12891-0.39844 0.20312l0.09375 0.0625z" fill="#eee"/>
<path d="m4.2539 1.7617 0.12109 0.35156h0.39453l-0.32031 0.21875 0.12109 0.35156-0.31641-0.21875-0.32031 0.21875 0.12109-0.35156-0.32031-0.21875h0.39453z" fill="#eee"/>
<path d="m4.2539 3.0078 0.12109 0.35156h0.39453l-0.32031 0.21484 0.12109 0.35156-0.31641-0.21484-0.32031 0.21484 0.12109-0.35156-0.32031-0.21484h0.39453z" fill="#eee"/>
<path d="m4.2539 4.25 0.12109 0.35156h0.39453l-0.32031 0.21875 0.12109 0.35156-0.31641-0.21875-0.32031 0.21875 0.12109-0.35156-0.32031-0.21875h0.39453z" fill="#eee"/>
<path d="m4.2539 5.4922 0.12109 0.35156h0.39453l-0.32031 0.21875 0.12109 0.35156-0.31641-0.21875-0.32031 0.21875 0.12109-0.35156-0.32031-0.21875h0.39453z" fill="#eee"/>
<path d="m5.5781 1.1406 0.12109 0.35156h0.39453l-0.31641 0.21875 0.12109 0.35156-0.32031-0.21875-0.32031 0.21875 0.125-0.35156-0.32031-0.21875h0.39453z" fill="#eee"/>
<path d="m5.5781 2.3828 0.12109 0.35547h0.39453l-0.31641 0.21484 0.12109 0.35156-0.32031-0.21484-0.32031 0.21484 0.125-0.35156-0.32031-0.21484h0.39453z" fill="#eee"/>
<path d="m5.5781 3.6289 0.12109 0.35156h0.39453l-0.31641 0.21484 0.12109 0.35547-0.32031-0.21875-0.32031 0.21875 0.125-0.35547-0.32031-0.21484h0.39453z" fill="#eee"/>
<path d="m5.5781 4.8711 0.12109 0.35156h0.39453l-0.31641 0.21875 0.12109 0.35156-0.32031-0.21875-0.32031 0.21875 0.125-0.35156-0.32031-0.21875h0.39453z" fill="#eee"/>
<path d="m6.9062 0.51953 0.12109 0.35156h0.39453l-0.32031 0.21875 0.12109 0.35156-0.31641-0.21875-0.32031 0.21875 0.12109-0.35156-0.32031-0.21875h0.39453z" fill="#eee"/>
<path d="m6.9062 1.7617 0.12109 0.35156h0.39453l-0.32031 0.21875 0.12109 0.35156-0.31641-0.21875-0.32031 0.21875 0.12109-0.35156-0.32031-0.21875h0.39453z" fill="#eee"/>
<path d="m6.9062 3.0078 0.12109 0.35156h0.39453l-0.32031 0.21484 0.12109 0.35156-0.31641-0.21484-0.32031 0.21484 0.12109-0.35156-0.32031-0.21484h0.39453z" fill="#eee"/>
<path d="m6.9062 4.25 0.12109 0.35156h0.39453l-0.32031 0.21875 0.12109 0.35156-0.31641-0.21875-0.32031 0.21875 0.12109-0.35156-0.32031-0.21875h0.39453z" fill="#eee"/>
<path d="m6.9062 5.4922 0.12109 0.35156h0.39453l-0.32031 0.21875 0.12109 0.35156-0.31641-0.21875-0.32031 0.21875 0.12109-0.35156-0.32031-0.21875h0.39453z" fill="#eee"/>
</g>
</svg>
