<?xml version="1.0" encoding="UTF-8"?>
<svg xmlns="http://www.w3.org/2000/svg" xmlns:xlink="http://www.w3.org/1999/xlink" width="16pt" height="16pt" viewBox="0 0 16 16" version="1.1">
<g id="surface1">
<path style=" stroke:none;fill-rule:nonzero;fill:rgb(0%,0%,0%);fill-opacity:1;" d="M 7.683594 0.0195312 C 7.632812 0.0234375 7.476562 0.046875 7.335938 0.0664062 C 6.5625 0.171875 5.632812 0.609375 5 1.164062 C 4.203125 1.871094 3.640625 2.886719 3.46875 3.925781 C 3.40625 4.304688 3.414062 5.160156 3.484375 5.503906 C 3.707031 6.644531 4.351562 7.699219 5.21875 8.351562 L 5.433594 8.519531 L 5.34375 8.550781 C 4.964844 8.695312 4.796875 8.769531 4.472656 8.929688 C 3.074219 9.632812 1.933594 10.695312 1.125 12.050781 C 0.460938 13.164062 0.0859375 14.402344 0.0117188 15.773438 L -0.0078125 16.152344 L 1.261719 16.152344 L 1.261719 16 C 1.261719 14.929688 1.707031 13.453125 2.300781 12.546875 C 3.222656 11.140625 4.453125 10.175781 5.949219 9.691406 C 7.375 9.222656 8.777344 9.222656 10.203125 9.691406 C 11.699219 10.175781 12.933594 11.140625 13.851562 12.546875 C 14.445312 13.453125 14.890625 14.929688 14.890625 16 L 14.890625 16.152344 L 16.164062 16.152344 L 16.140625 15.773438 C 16.066406 14.402344 15.695312 13.164062 15.03125 12.050781 C 14.21875 10.695312 13.078125 9.632812 11.679688 8.929688 C 11.355469 8.769531 11.191406 8.695312 10.808594 8.550781 L 10.722656 8.519531 L 10.933594 8.351562 C 11.804688 7.699219 12.445312 6.644531 12.671875 5.503906 C 12.742188 5.160156 12.75 4.304688 12.6875 3.925781 C 12.550781 3.097656 12.128906 2.21875 11.574219 1.585938 C 10.882812 0.808594 9.914062 0.257812 8.898438 0.0742188 C 8.65625 0.03125 7.851562 -0.0078125 7.683594 0.0195312 Z M 8.609375 1.308594 C 10.464844 1.613281 11.734375 3.359375 11.4375 5.203125 C 11.132812 7.058594 9.386719 8.328125 7.546875 8.027344 C 5.6875 7.726562 4.421875 5.980469 4.71875 4.136719 C 5.019531 2.28125 6.765625 1.011719 8.609375 1.308594 Z M 8.609375 1.308594 "/>
</g>
</svg>
