<?xml version="1.0" encoding="UTF-8"?>
<svg xmlns="http://www.w3.org/2000/svg" xmlns:xlink="http://www.w3.org/1999/xlink" width="25pt" height="25pt" viewBox="0 0 25 25" version="1.1">
<g id="surface1">
<path style=" stroke:none;fill-rule:nonzero;fill:rgb(95.294118%,94.901961%,94.901961%);fill-opacity:1;" d="M 25 12.5 C 25 19.402344 19.402344 25 12.5 25 C 5.597656 25 0 19.402344 0 12.5 C 0 5.597656 5.597656 0 12.5 0 C 19.402344 0 25 5.597656 25 12.5 Z M 25 12.5 "/>
<path style=" stroke:none;fill-rule:nonzero;fill:rgb(16.078431%,21.176471%,53.333333%);fill-opacity:1;" d="M 9.257812 14.898438 L 10.210938 9.25 L 11.761719 9.25 L 10.804688 14.898438 Z M 9.257812 14.898438 "/>
<path style=" stroke:none;fill-rule:nonzero;fill:rgb(16.078431%,21.176471%,53.333333%);fill-opacity:1;" d="M 16.316406 9.394531 C 16.011719 9.28125 15.53125 9.160156 14.929688 9.160156 C 13.398438 9.160156 12.320312 9.925781 12.3125 11.023438 C 12.304688 11.835938 13.082031 12.289062 13.667969 12.558594 C 14.273438 12.832031 14.472656 13.011719 14.472656 13.257812 C 14.46875 13.636719 13.988281 13.808594 13.542969 13.808594 C 12.925781 13.808594 12.59375 13.722656 12.085938 13.511719 L 11.886719 13.421875 L 11.667969 14.6875 C 12.03125 14.84375 12.699219 14.980469 13.394531 14.988281 C 15.023438 14.988281 16.078125 14.230469 16.09375 13.058594 C 16.097656 12.417969 15.683594 11.929688 14.792969 11.523438 C 14.25 11.265625 13.917969 11.089844 13.921875 10.824219 C 13.921875 10.589844 14.203125 10.339844 14.808594 10.339844 C 15.316406 10.332031 15.683594 10.441406 15.96875 10.554688 L 16.105469 10.621094 Z M 16.316406 9.394531 "/>
<path style=" stroke:none;fill-rule:nonzero;fill:rgb(16.078431%,21.176471%,53.333333%);fill-opacity:1;" d="M 18.957031 9.25 C 18.585938 9.25 18.320312 9.363281 18.15625 9.730469 L 15.859375 14.898438 L 17.5 14.898438 L 17.820312 14.03125 L 19.777344 14.03125 L 19.960938 14.898438 L 21.417969 14.898438 L 20.140625 9.25 Z M 18.253906 12.902344 C 18.382812 12.578125 18.871094 11.324219 18.871094 11.324219 C 18.863281 11.339844 18.996094 10.996094 19.074219 10.785156 L 19.179688 11.273438 C 19.179688 11.273438 19.476562 12.621094 19.539062 12.902344 Z M 18.253906 12.902344 "/>
<path style=" stroke:none;fill-rule:nonzero;fill:rgb(16.078431%,21.176471%,53.333333%);fill-opacity:1;" d="M 6.433594 13.121094 L 6.296875 12.347656 C 6.011719 11.445312 5.136719 10.46875 4.152344 9.980469 L 5.519531 14.898438 L 7.160156 14.898438 L 9.621094 9.25 L 7.980469 9.25 Z M 6.433594 13.121094 "/>
<path style=" stroke:none;fill-rule:nonzero;fill:rgb(96.862745%,59.607843%,11.372549%);fill-opacity:1;" d="M 2.46875 9.25 L 2.46875 9.339844 C 4.414062 9.808594 5.761719 10.992188 6.296875 12.347656 L 5.734375 9.730469 C 5.640625 9.375 5.355469 9.261719 5.019531 9.25 Z M 2.46875 9.25 "/>
<path style=" stroke:none;fill-rule:nonzero;fill:rgb(96.862745%,59.607843%,11.372549%);fill-opacity:1;" d="M 12.5 25 C 17.324219 25 21.507812 22.265625 23.589844 18.261719 L 1.40625 18.261719 C 3.492188 22.265625 7.675781 25 12.5 25 Z M 12.5 25 "/>
<path style=" stroke:none;fill-rule:nonzero;fill:rgb(16.078431%,21.176471%,53.333333%);fill-opacity:1;" d="M 12.5 0 C 7.75 0 3.621094 2.648438 1.503906 6.546875 L 23.492188 6.546875 C 21.375 2.648438 17.246094 0 12.5 0 Z M 12.5 0 "/>
</g>
</svg>
